# OBJ generated by ONSHAPE BY PTC INC, 1.189 Units = meters
mtllib Part Studio 1 - Part 2.mtl
g Part 2
v 0.000254 0.00558316 -0.0230589 
v 0 0.00558316 -0.0230589 
v 0 0.0177924 1.73472e-18 
v 0.000254 0.0177924 1.73472e-18 
v 0 -0.0165147 6.07153e-18 
v 0.000254 -0.0165147 6.07153e-18 
v 0 -0.0110571 -0.0136616 
v 0 -0.0174341 -0.0230589 
v 0.000254 -0.0110571 -0.0136616 
v 0.000254 -0.0174341 -0.0230589 
v 0.000254 -0.00691674 -0.0171432 
v 0.000254 -0.00691674 -0.0230589 
v 0.000254 0.000160009 -0.0230589 
v 0.000254 0.000160009 -0.0199585 
v 0.000254 -0.0101188 -0.0171432 
v 0.000254 0.00147068 -0.0199585 
v 0.000254 -0.0101188 -0.0230589 
v 0.000254 0.00147068 -0.0230589 
v 0.0007874 -0.0101188 -0.0171432 
v 0.0007874 -0.00691674 -0.0171432 
v 0.0045974 -0.0101188 -0.0209532 
v 0.0045974 -0.0101188 -0.0230589 
v 0.0045974 -0.00691674 -0.0209532 
v 0.0045974 -0.00691674 -0.0230589 
v 0.0023114 0.00147068 -0.0230589 
v 0.0023114 0.000160009 -0.0230589 
v 0.0023114 0.000160009 -0.0199585 
v 0.0023114 0.00147068 -0.0199585 
vn 0 0.883762 -0.467936 
vn 0 0 1 
vn -1 0 0 
vn 0 -0.928639 -0.370984 
vn 0 -0.827464 0.561519 
vn 1 0 0 
vn 0 0 1 
vn 0 -1 0 
vn 0 1 1.4662e-16 
vn 1 0 0 
vn 0.707107 0 0.707107 
vn 0 0 -1 
vn 0 -1 -1.83594e-16 
vn 0 1 0 
vn 0 0 1 
vn 1 0 0 
usemtl 0.647059_0.647059_0.647059_0.000000_0.000000
o mesh0
f 1//1 2//1 3//1 
f 3//1 4//1 1//1 
o mesh1
f 4//2 3//2 5//2 
f 5//2 6//2 4//2 
o mesh2
f 3//3 2//3 7//3 
f 2//3 8//3 7//3 
f 7//3 5//3 3//3 
o mesh3
f 6//4 5//4 7//4 
f 7//4 9//4 6//4 
o mesh4
f 9//5 7//5 8//5 
f 8//5 10//5 9//5 
o mesh5
f 11//6 6//6 9//6 
f 12//6 13//6 14//6 
f 9//6 15//6 11//6 
f 1//6 4//6 16//6 
f 4//6 6//6 14//6 
f 11//6 14//6 6//6 
f 10//6 17//6 15//6 
f 14//6 16//6 4//6 
f 15//6 9//6 10//6 
f 14//6 11//6 12//6 
f 16//6 18//6 1//6 
o mesh6
f 11//7 15//7 19//7 
f 19//7 20//7 11//7 
o mesh7
f 17//8 21//8 19//8 
f 17//8 22//8 21//8 
f 19//8 15//8 17//8 
o mesh8
f 12//9 20//9 23//9 
f 12//9 11//9 20//9 
f 23//9 24//9 12//9 
o mesh9
f 22//10 24//10 23//10 
f 23//10 21//10 22//10 
o mesh10
f 20//11 19//11 21//11 
f 21//11 23//11 20//11 
o mesh11
f 8//12 12//12 17//12 
f 22//12 17//12 12//12 
f 12//12 24//12 22//12 
f 8//12 18//12 13//12 
f 13//12 12//12 8//12 
f 18//12 25//12 26//12 
f 26//12 13//12 18//12 
f 2//12 1//12 18//12 
f 18//12 8//12 2//12 
f 17//12 10//12 8//12 
o mesh12
f 26//13 27//13 14//13 
f 14//13 13//13 26//13 
o mesh13
f 25//14 18//14 16//14 
f 16//14 28//14 25//14 
o mesh14
f 27//15 28//15 16//15 
f 16//15 14//15 27//15 
o mesh15
f 28//16 27//16 26//16 
f 26//16 25//16 28//16 
